<svg xmlns:dc="http://purl.org/dc/elements/1.1/" xmlns:cc="http://creativecommons.org/ns#" xmlns:rdf="http://www.w3.org/1999/02/22-rdf-syntax-ns#" xmlns:svg="http://www.w3.org/2000/svg" xmlns="http://www.w3.org/2000/svg" xmlns:sodipodi="http://sodipodi.sourceforge.net/DTD/sodipodi-0.dtd" xmlns:inkscape="http://www.inkscape.org/namespaces/inkscape" viewBox="0 0 100 125" version="1.1" x="0px" y="0px"><g transform="translate(0,-952.36216)"><path style="color:#000000;font-style:normal;font-variant:normal;font-weight:normal;font-stretch:normal;font-size:medium;line-height:normal;font-family:sans-serif;text-indent:0;text-align:start;text-decoration:none;text-decoration-line:none;text-decoration-style:solid;text-decoration-color:#000000;letter-spacing:normal;word-spacing:normal;text-transform:none;direction:ltr;block-progression:tb;writing-mode:lr-tb;baseline-shift:baseline;text-anchor:start;white-space:normal;clip-rule:nonzero;display:inline;overflow:visible;visibility:visible;opacity:1;isolation:auto;mix-blend-mode:normal;color-interpolation:sRGB;color-interpolation-filters:linearRGB;solid-color:#000000;solid-opacity:1;fill:#000000;fill-opacity:1;fill-rule:evenodd;stroke:none;stroke-width:8;stroke-linecap:round;stroke-linejoin:round;stroke-miterlimit:4;stroke-dasharray:none;stroke-dashoffset:0;stroke-opacity:1;color-rendering:auto;image-rendering:auto;shape-rendering:auto;text-rendering:auto;enable-background:accumulate" d="m 12.14877,957.36217 a 0.73958964,0.73958964 0 0 0 -0.67055,0.4643 l -1.071,2.6772 a 0.73958964,0.73958964 0 0 0 -0.005,0.5369 l 1.96325,5.1755 a 0.73958964,0.73958964 0 0 0 1.42487,-0.3567 l -0.63624,-4.9289 0.23434,-0.078 0.72797,3.6401 a 0.73958964,0.73958964 0 0 0 0.15165,0.3221 l 3.59214,4.4086 -0.61169,0.9789 a 0.73958964,0.73958964 0 0 0 0.28707,1.049 l 5.17589,2.6768 a 0.73958964,0.73958964 0 0 0 0.3062,0.082 l 3.73694,0.1701 3.94312,2.3998 a 0.73958964,0.73958964 0 0 0 0.31451,0.1047 l 3.31483,0.3156 1.0746,2.4569 a 0.73958964,0.73958964 0 0 0 0.26107,0.3149 l 3.92615,2.6767 a 0.73958964,0.73958964 0 0 0 0.38926,0.1282 l 4.13089,0.1528 0.1448,4.2013 -3.91857,4.6003 a 0.73958964,0.73958964 0 0 0 -0.13866,0.7131 l 0.60627,1.8192 -0.89587,1.4928 a 0.73958964,0.73958964 0 0 0 -0.0867,0.547 l 0.5355,2.32 a 0.73958964,0.73958964 0 0 0 0.52611,0.5471 l 1.64875,0.4499 3.14402,6.12233 -0.15924,1.7495 a 0.73958964,0.73958964 0 0 0 0.39901,0.7247 l 6.18838,3.178 -0.16357,5.7298 -1.95134,11.708 -0.88756,3.9052 a 0.73958964,0.73958964 0 0 0 -0.007,0.037 l -0.71424,4.1049 a 0.73958964,0.73958964 0 0 0 -0.009,0.07 l -0.5355,6.9604 a 0.73958964,0.73958964 0 0 0 0.38023,0.7045 l 5.17553,2.8555 a 0.73958964,0.73958964 0 0 0 1.01178,-0.9919 l -1.52164,-2.8913 2.26404,-2.1134 a 0.73958964,0.73958964 0 0 0 0.15708,-0.8714 l -0.72796,-1.4552 1.26454,-0.5748 a 0.73958964,0.73958964 0 0 0 0.41164,-0.4936 l 0.75216,-3.0094 1.74263,0 a 0.73958964,0.73958964 0 0 0 0.73518,-0.6579 l 0.10183,-0.9175 3.23429,0.147 a 0.73958964,0.73958964 0 0 0 0.581,-0.2416 l 1.78452,-1.9629 a 0.73958964,0.73958964 0 0 0 0.11446,-0.8284 l -0.51853,-1.0366 1.81052,0.4762 a 0.73958964,0.73958964 0 0 0 0.67235,-0.1563 l 5.35427,-4.64 a 0.73958964,0.73958964 0 0 0 0.21701,-0.325 l 1.33965,-4.019 3.95648,-2.3077 2.58109,-0.6883 a 0.73958964,0.73958964 0 0 0 0.36037,-0.2217 l 3.03425,-3.3906 a 0.73958964,0.73958964 0 0 0 0.16935,-0.3272 l 1.55197,-6.7253 2.49515,-2.1622 a 0.73958964,0.73958964 0 0 0 0.20799,-0.2994 l 1.07099,-2.8555 a 0.73958964,0.73958964 0 0 0 0.0469,-0.2596 l 0,-3.21263 a 0.73958964,0.73958964 0 0 0 -0.26612,-0.568 l -1.07064,-0.8923 a 0.73958964,0.73958964 0 0 0 -0.0495,-0.038 l -3.56939,-2.4984 a 0.73958964,0.73958964 0 0 0 -0.27912,-0.1195 l -2.58758,-0.5174 -3.30869,-1.5672 a 0.73958964,0.73958964 0 0 0 -0.057,-0.024 l -2.54967,-0.9561 -0.5846,-1.4614 -1.24252,-3.7272 a 0.73958964,0.73958964 0 0 0 -0.45281,-0.4625 l -2.49875,-0.8927 a 0.73958964,0.73958964 0 0 0 -0.97387,0.5514 l -0.4575,2.2879 -3.24838,1.3292 -0.47267,-0.2365 -0.62794,-2.3551 a 0.73958964,0.73958964 0 0 0 -0.11663,-0.2444 l -1.15008,-1.5816 1.55558,-2.7999 a 0.73958964,0.73958964 0 0 0 -0.38961,-1.0526 l -4.81877,-1.7849 a 0.73958964,0.73958964 0 0 0 -0.10616,-0.03 l -4.28327,-0.8923 a 0.73958964,0.73958964 0 0 0 -0.10977,-0.014 l -3.21227,-0.1787 a 0.73958964,0.73958964 0 0 0 -0.67669,0.3607 l -0.10977,-0.2636 a 0.73958964,0.73958964 0 0 0 -0.83954,-0.438 l -4.10489,0.8923 a 0.73958964,0.73958964 0 0 0 -0.57016,0.5904 l -0.21738,1.1952 -2.98876,-0.7117 a 0.73958964,0.73958964 0 0 0 -0.18849,-0.02 l -1.87045,0.044 -1.47759,-1.2534 0,-4.2977 a 0.73958964,0.73958964 0 0 0 -0.69474,-0.7381 l -5.2463,-0.3181 -0.096,-1.2458 1.24613,-0.8305 a 0.73958964,0.73958964 0 0 0 0.19535,-0.1914 l 1.24938,-1.7848 a 0.73958964,0.73958964 0 0 0 -0.51781,-1.1581 l -4.46165,-0.5354 a 0.73958964,0.73958964 0 0 0 -0.81318,0.5893 l -0.43294,2.164 -2.72588,0.3892 -1.40537,-2.5298 0.66043,-3.3029 a 0.73958964,0.73958964 0 0 0 -0.29031,-0.7431 l -1.7838,-1.297 -0.99264,-2.6479 a 0.73958964,0.73958964 0 0 0 -1.05186,-0.3868 l -1.1183,0.6215 -1.9257,-1.9257 a 0.73958964,0.73958964 0 0 0 -0.73157,-0.1867 l -2.82843,0.8319 -3.54159,-1.0117 a 0.73958964,0.73958964 0 0 0 -0.21918,-0.028 z m 0.45461,1.6335 0.90381,0.2582 -1.16199,0.3875 0.25818,-0.6457 z m 6.13062,0.1174 2.00983,2.0098 a 0.73958964,0.73958964 0 0 0 0.88179,0.1235 l 0.85615,-0.4755 0.76948,2.0517 a 0.73958964,0.73958964 0 0 0 0.25746,0.3387 l 1.58014,1.149 -0.62108,3.105 a 0.73958964,0.73958964 0 0 0 0.0787,0.5041 l 1.78487,3.2123 a 0.73958964,0.73958964 0 0 0 0.75107,0.373 l 3.74777,-0.5355 a 0.73958964,0.73958964 0 0 0 0.62036,-0.5868 l 0.40153,-2.0066 2.55689,0.3069 -0.46147,0.6594 -1.49059,0.9937 a 0.73958964,0.73958964 0 0 0 -0.32715,0.672 l 0.17838,2.32 a 0.73958964,0.73958964 0 0 0 0.69258,0.6818 l 5.19502,0.3145 0,3.9442 a 0.73958964,0.73958964 0 0 0 0.26107,0.564 l 1.95315,1.6567 a 0.73958964,0.73958964 0 0 0 0.49577,0.1755 l 2.05606,-0.048 3.65461,0.8702 a 0.73958964,0.73958964 0 0 0 0.89912,-0.5871 l 0.26865,-1.4776 3.01981,-0.6564 0.65538,1.5725 a 0.73958964,0.73958964 0 0 0 1.39092,-0.072 l 0.36796,-1.2263 2.57494,0.143 4.17494,0.8699 3.95865,1.466 -1.36601,2.459 a 0.73958964,0.73958964 0 0 0 0.0484,0.7941 l 1.34651,1.852 0.67849,2.5439 a 0.73958964,0.73958964 0 0 0 0.38384,0.4709 l 1.071,0.5355 a 0.73958964,0.73958964 0 0 0 0.6106,0.023 l 3.92615,-1.6065 a 0.73958964,0.73958964 0 0 0 0.44523,-0.5395 l 0.36759,-1.8376 1.35373,0.4835 1.13528,3.4062 a 0.73958964,0.73958964 0 0 0 0.0148,0.041 l 0.71388,1.7849 a 0.73958964,0.73958964 0 0 0 0.42717,0.4178 l 2.82662,1.0598 3.36285,1.5931 a 0.73958964,0.73958964 0 0 0 0.17152,0.057 l 2.52511,0.5052 3.41701,2.3918 0.78068,0.6507 0,2.73203 -0.95761,2.5537 -2.53486,2.1972 a 0.73958964,0.73958964 0 0 0 -0.23652,0.3925 l -1.56353,6.7752 -2.75982,3.0844 -2.46373,0.6572 a 0.73958964,0.73958964 0 0 0 -0.18199,0.076 l -4.28363,2.4983 a 0.73958964,0.73958964 0 0 0 -0.32859,0.4052 l -1.36384,4.0908 -4.90616,4.2518 -3.01331,-0.7929 a 0.73958964,0.73958964 0 0 0 -0.84964,1.0457 l 1.02261,2.0456 -1.21002,1.331 -3.57914,-0.1625 a 0.73958964,0.73958964 0 0 0 -0.7684,0.6568 l -0.10544,0.9486 -1.6585,0 a 0.73958964,0.73958964 0 0 0 -0.71713,0.5601 l -0.80595,3.2231 -1.63827,0.7449 a 0.73958964,0.73958964 0 0 0 -0.35532,1.0038 l 0.82365,1.6473 -2.27307,2.1214 a 0.73958964,0.73958964 0 0 0 -0.14985,0.8851 l 0.63516,1.2068 -2.59806,-1.4332 0.49614,-6.4509 0.70485,-4.0515 0.88793,-3.9077 a 0.73958964,0.73958964 0 0 0 0.008,-0.042 l 1.96326,-11.7791 a 0.73958964,0.73958964 0 0 0 0.01,-0.1004 l 0.17838,-6.2465 a 0.73958964,0.73958964 0 0 0 -0.40118,-0.6789 l -6.1595,-3.1628 0.13324,-1.4664 a 0.73958964,0.73958964 0 0 0 -0.0787,-0.4048 l -3.39101,-6.60323 a 0.73958964,0.73958964 0 0 0 -0.46329,-0.3759 l -1.53644,-0.4189 -0.36904,-1.5986 0.91754,-1.5288 a 0.73958964,0.73958964 0 0 0 0.0672,-0.6142 l -0.58172,-1.7459 3.83443,-4.501 a 0.73958964,0.73958964 0 0 0 0.17586,-0.5052 l -0.17838,-5.1755 a 0.73958964,0.73958964 0 0 0 -0.71171,-0.7135 l -4.60573,-0.1705 -3.57444,-2.4373 -1.1638,-2.6606 a 0.73958964,0.73958964 0 0 0 -0.60772,-0.4398 l -3.57842,-0.3408 -3.95973,-2.4103 a 0.73958964,0.73958964 0 0 0 -0.35098,-0.1069 l -3.76438,-0.1712 -4.31902,-2.2341 0.46725,-0.7474 a 0.73958964,0.73958964 0 0 0 -0.0538,-0.859 l -3.8106,-4.6765 -0.85615,-4.2819 a 0.73958964,0.73958964 0 0 0 -0.0571,-0.1697 l 1.09194,0.312 a 0.73958964,0.73958964 0 0 0 0.41165,0 l 2.61286,-0.7684 z"/><path style="color:#000000;font-style:normal;font-variant:normal;font-weight:normal;font-stretch:normal;font-size:medium;line-height:normal;font-family:sans-serif;text-indent:0;text-align:start;text-decoration:none;text-decoration-line:none;text-decoration-style:solid;text-decoration-color:#000000;letter-spacing:normal;word-spacing:normal;text-transform:none;direction:ltr;block-progression:tb;writing-mode:lr-tb;baseline-shift:baseline;text-anchor:start;white-space:normal;clip-rule:nonzero;display:inline;overflow:visible;visibility:visible;opacity:1;isolation:auto;mix-blend-mode:normal;color-interpolation:sRGB;color-interpolation-filters:linearRGB;solid-color:#000000;solid-opacity:1;fill:#000000;fill-opacity:1;fill-rule:evenodd;stroke:none;stroke-width:7.99999952;stroke-linecap:round;stroke-linejoin:round;stroke-miterlimit:4;stroke-dasharray:none;stroke-dashoffset:0;stroke-opacity:1;color-rendering:auto;image-rendering:auto;shape-rendering:auto;text-rendering:auto;enable-background:accumulate" d="m 43.31278,964.46447 a 0.7395896,0.7395896 0 0 0 -0.0737,0 l -3.16569,0.2936 a 0.7395896,0.7395896 0 0 0 -0.12422,0.022 l -2.44639,0.6601 a 0.7395896,0.7395896 0 0 0 0.35892,1.4346 l 1.98456,-0.4572 4.01101,1.8405 2.30737,1.7827 a 0.7395896,0.7395896 0 0 0 0.74566,0.093 l 2.37417,-1.0273 a 0.7395896,0.7395896 0 0 0 0.0787,-1.3176 l -2.51789,-1.4671 a 0.7395896,0.7395896 0 0 0 -0.013,-0.01 l -3.16569,-1.7607 a 0.7395896,0.7395896 0 0 0 -0.35387,-0.093 z m -0.16502,1.4971 2.95915,1.6458 1.24721,0.7269 -0.63047,0.2726 -2.02897,-1.5671 a 0.7395896,0.7395896 0 0 0 -0.14372,-0.087 l -2.03294,-0.9327 0.62974,-0.058 z"/><path style="color:#000000;font-style:normal;font-variant:normal;font-weight:normal;font-stretch:normal;font-size:medium;line-height:normal;font-family:sans-serif;text-indent:0;text-align:start;text-decoration:none;text-decoration-line:none;text-decoration-style:solid;text-decoration-color:#000000;letter-spacing:normal;word-spacing:normal;text-transform:none;direction:ltr;block-progression:tb;writing-mode:lr-tb;baseline-shift:baseline;text-anchor:start;white-space:normal;clip-rule:nonzero;display:inline;overflow:visible;visibility:visible;opacity:1;isolation:auto;mix-blend-mode:normal;color-interpolation:sRGB;color-interpolation-filters:linearRGB;solid-color:#000000;solid-opacity:1;fill:#000000;fill-opacity:1;fill-rule:evenodd;stroke:none;stroke-width:7.99999952;stroke-linecap:round;stroke-linejoin:round;stroke-miterlimit:4;stroke-dasharray:none;stroke-dashoffset:0;stroke-opacity:1;color-rendering:auto;image-rendering:auto;shape-rendering:auto;text-rendering:auto;enable-background:accumulate" d="m 50.95059,968.20607 a 0.7395896,0.7395896 0 0 0 -0.75035,0.8352 l 0.0704,0.5398 -1.06089,0.4427 a 0.7395896,0.7395896 0 0 0 -0.44089,0.8251 l 0.0722,0.3669 a 0.7395896,0.7395896 0 0 0 0.72544,0.5969 l 2.48431,0 1.13671,0.5795 a 0.7395896,0.7395896 0 0 0 1.03887,-0.4293 l 0.17729,-0.5424 1.93329,0.169 a 0.7395896,0.7395896 0 0 0 0.67018,-0.3123 c 0,0 0.13137,-0.1631 0.22713,-0.4366 0.0479,-0.1367 0.13508,-0.3271 0.0166,-0.6655 -0.0592,-0.1692 -0.20743,-0.3573 -0.37951,-0.4556 -0.17208,-0.098 -0.33718,-0.1196 -0.47014,-0.1196 0.18108,0 0.13126,0.02 0.0798,0 -0.0514,-0.021 -0.14082,-0.064 -0.2441,-0.1188 -0.20656,-0.1099 -0.47385,-0.2689 -0.73121,-0.429 -0.5147,-0.3202 -0.99119,-0.6438 -0.99119,-0.6438 a 0.7395896,0.7395896 0 0 0 -0.39865,-0.1278 l -3.16533,-0.073 z m 0.82798,1.4985 2.09361,0.049 c 0.0383,0.026 0.16442,0.1056 0.24194,0.1571 l -0.16647,-0.014 a 0.7395896,0.7395896 0 0 0 -0.76732,0.507 l -0.091,0.2788 -0.52503,-0.2676 a 0.7395896,0.7395896 0 0 0 -0.33581,-0.081 l -0.47087,0 a 0.7395896,0.7395896 0 0 0 0.0531,-0.3839 l -0.0321,-0.2451 z"/></g><text x="0" y="115" fill="#000000" font-size="5px" font-weight="bold" font-family="'Helvetica Neue', Helvetica, Arial-Unicode, Arial, Sans-serif">Created by anbileru adaleru</text><text x="0" y="120" fill="#000000" font-size="5px" font-weight="bold" font-family="'Helvetica Neue', Helvetica, Arial-Unicode, Arial, Sans-serif">from the Noun Project</text></svg>