<svg xmlns="http://www.w3.org/2000/svg" xmlns:xlink="http://www.w3.org/1999/xlink" version="1.1" x="0px" y="0px" viewBox="0 0 100 125" enable-background="new 0 0 100 100" xml:space="preserve"><circle fill="#000000" cx="14.177" cy="45.185" r="5.497"/><path fill="#000000" d="M18.965,90.58V72.182c0-0.067-0.016-0.128-0.021-0.192h0.876c1.949,0,3.529-1.582,3.529-3.529l0,0V55.709  c0-1.95-1.58-3.531-3.528-3.531H8.53c-1.95,0-3.53,1.581-3.53,3.531v12.747c0,1.951,1.58,3.533,3.529,3.533h0.875  c-0.003,0.064-0.02,0.125-0.02,0.192V90.58c0,1.503,1.219,2.718,2.721,2.718h4.137C17.748,93.298,18.965,92.079,18.965,90.58z"/><circle fill="#000000" cx="38.06" cy="45.185" r="5.497"/><path fill="#000000" d="M42.849,90.58V72.182c0-0.067-0.015-0.128-0.02-0.192h0.874c1.948,0,3.529-1.582,3.529-3.529l0,0V55.709  c0-1.95-1.579-3.531-3.527-3.531h-11.29c-1.95,0-3.529,1.581-3.529,3.531v12.747c0,1.951,1.579,3.533,3.528,3.533h0.875  c-0.006,0.064-0.02,0.125-0.02,0.192V90.58c0,1.503,1.218,2.718,2.721,2.718h4.135C41.633,93.298,42.849,92.079,42.849,90.58z"/><circle fill="#000000" cx="61.945" cy="45.185" r="5.497"/><path fill="#000000" d="M66.732,90.58V72.182c0-0.067-0.019-0.128-0.019-0.192h0.876c1.948,0,3.527-1.582,3.527-3.529h0.002V55.709  c0-1.95-1.581-3.531-3.529-3.531H56.298c-1.95,0-3.529,1.581-3.529,3.531v12.747c0,1.951,1.579,3.533,3.526,3.533h0.875  c-0.005,0.064-0.022,0.125-0.022,0.192V90.58c0,1.503,1.222,2.718,2.724,2.718h4.138C65.514,93.298,66.732,92.079,66.732,90.58z"/><circle fill="#000000" cx="85.829" cy="45.185" r="5.497"/><path fill="#000000" d="M91.479,52.18H80.186c-1.95,0-3.53,1.579-3.53,3.529V68.46c0,1.95,1.58,3.529,3.53,3.529h0.874  c-0.005,0.064-0.02,0.125-0.02,0.192V90.58c0,1.503,1.216,2.721,2.717,2.721h4.137c1.503,0,2.727-1.218,2.727-2.721V72.182  c0-0.068-0.018-0.131-0.022-0.192h0.875c1.947,0,3.527-1.582,3.527-3.533l0,0V55.709C95.005,53.759,93.428,52.18,91.479,52.18z"/><circle fill="#000000" cx="38.06" cy="23.194" r="5.497"/><circle fill="#000000" cx="61.945" cy="23.194" r="5.497"/><circle fill="#000000" cx="26.117" cy="34.19" r="5.497"/><circle fill="#000000" cx="50.004" cy="34.189" r="5.499"/><circle fill="#000000" cx="50.004" cy="12.198" r="5.499"/><circle fill="#000000" cx="73.888" cy="34.19" r="5.497"/></svg>