<svg xmlns="http://www.w3.org/2000/svg" xmlns:xlink="http://www.w3.org/1999/xlink" version="1.1" x="0px" y="0px" viewBox="0 0 100 125" enable-background="new 0 0 100 100" xml:space="preserve"><g><path fill="none" d="M7.417,31.279c0-0.328,0.032-0.647,0.079-0.961l-0.008,0l0.024-0.104c0.047-0.282,0.106-0.559,0.188-0.827   l1.383-6.082c-0.979,0.547-2.357,1.28-3.081,1.632c-0.333,0.162-0.815,0.363-1.339,0.544c0.453,0.837,1.937,3.636,2.756,5.84   C7.419,31.306,7.417,31.293,7.417,31.279z"/><path fill="none" d="M41.235,33.052c0.056,0.103,0.119,0.203,0.169,0.31c0.783-1.619,2.208-3.731,2.91-4.738   c-0.541-0.244-1.043-0.511-1.378-0.717c-0.315-0.194-0.765-0.487-1.243-0.804c-0.1,0.733-0.343,1.415-0.714,2.018   c-0.086,0.452-0.136,0.92-0.136,1.405c0,0.781,0.191,1.809,0.405,2.497C41.244,33.033,41.238,33.042,41.235,33.052z"/><path fill="none" d="M32.003,32.745c-0.001-0.002-0.002-0.003-0.002-0.005c0.214-0.688,0.336-1.432,0.336-2.214   c0-0.4-0.042-0.786-0.102-1.165c-0.487-0.705-0.783-1.541-0.874-2.439c-0.482,0.321-0.938,0.617-1.253,0.811   c-0.318,0.196-0.794,0.449-1.308,0.681c0.72,1.033,2.233,3.284,2.92,4.851C31.807,33.088,31.897,32.912,32.003,32.745z"/><path fill="none" d="M66.21,16.741c0.184,0.274,0.417,0.484,0.765,0.53c0.062,0.008,0.116,0.001,0.165-0.014   c0.092,0.066,0.185,0.139,0.249,0.23c0.106,0.152,0.259,0.158,0.378,0.091c0.074-0.041,0.097-0.193,0.119-0.3   c0.017-0.083-0.003-0.174-0.006-0.261c0.001,0,0.003,0,0.004,0c-0.011-0.279,0.009-0.563-0.039-0.835   c-0.11-0.621-0.745-1.091-1.309-1.008c-0.09,0.013-0.371,0.122-0.505,0.18c-0.134-0.058-0.415-0.166-0.505-0.18   c-0.564-0.083-1.199,0.386-1.309,1.008c-0.048,0.272-0.028,0.557-0.039,0.835c0.001,0,0.004,0,0.004,0   c-0.003,0.087-0.023,0.178-0.006,0.261c0.022,0.107,0.045,0.259,0.119,0.3c0.119,0.067,0.271,0.061,0.378-0.091   c0.063-0.09,0.157-0.164,0.249-0.23c0.049,0.015,0.103,0.022,0.165,0.014c0.347-0.046,0.581-0.256,0.765-0.53   c0.071-0.106,0.124-0.223,0.18-0.339C66.086,16.517,66.139,16.635,66.21,16.741z"/><path fill="none" d="M72.245,30.697c0.022,0.091,0.045,0.182,0.063,0.275c0.007,0.04,0.02,0.078,0.027,0.118l0.023,0.103l-0.008,0   c0.014,0.091,0.022,0.183,0.033,0.274c0.003,0.03,0.008,0.059,0.011,0.089c0.02,0.194,0.035,0.39,0.035,0.589   c0,0.015-0.002,0.029-0.002,0.044c0.81-2.184,2.282-4.961,2.731-5.791c-0.519-0.179-0.997-0.378-1.327-0.539   c-0.717-0.349-2.083-1.076-3.053-1.618l1.37,6.027C72.19,30.408,72.213,30.554,72.245,30.697z M71.705,25.159   c0.005-0.008,0.013-0.013,0.019-0.02c0.742,0.399,1.496,0.793,1.961,1.02c0.281,0.137,0.631,0.285,0.997,0.422   c-0.253,0.472-0.485,0.919-0.708,1.353C72.586,26.811,71.391,25.644,71.705,25.159z"/><path fill="none" d="M67.086,19.705L66.522,19.9c-0.053,0.018-0.091,0.098-0.091,0.18v0.112c0,0.082,0.037,0.162,0.091,0.18   l0.564,0.195c0.227,0.078,0.481-0.028,0.481-0.268v-0.326C67.567,19.734,67.312,19.627,67.086,19.705z"/><path fill="none" d="M13.874,30.054l0.842-0.902l-0.174-9.656c0.054-0.104,0.092-0.218,0.092-0.344c0-0.42-0.34-0.76-0.76-0.76   c-0.42,0-0.76,0.34-0.76,0.76c0,0.126,0.038,0.239,0.092,0.344l-0.174,9.656L13.874,30.054z"/><polygon fill="none" points="16.474,18.807 16.474,18.807 16.474,18.807  "/><path fill="none" d="M20.227,30.161l0.023,0.103l-0.008,0c0.052,0.332,0.088,0.669,0.088,1.016c0,0.014-0.002,0.027-0.002,0.041   c0.819-2.204,2.303-5.003,2.756-5.84c-0.524-0.181-1.006-0.382-1.339-0.544c-0.724-0.352-2.102-1.085-3.08-1.632l1.414,6.204   C20.14,29.722,20.189,29.939,20.227,30.161z"/><path fill="none" d="M86.974,23.795c0-0.086,0.016-0.168,0.038-0.248c-0.28,0.113-0.478,0.386-0.478,0.706   c0,0.421,0.341,0.762,0.762,0.762c0.243,0,0.456-0.116,0.595-0.293C87.384,24.716,86.974,24.304,86.974,23.795z"/><path fill="none" d="M64.974,19.705c-0.227-0.078-0.481,0.028-0.481,0.268v0.326c0,0.24,0.255,0.346,0.481,0.268l0.564-0.195   c0.053-0.018,0.091-0.098,0.091-0.18V20.08c0-0.082-0.037-0.162-0.091-0.18L64.974,19.705z"/><circle fill="none" cx="66.027" cy="20.136" r="0.349"/><path fill="none" d="M92.541,34.868c0.664-1.507,2.112-3.661,2.802-4.652c-0.494-0.223-0.952-0.466-1.259-0.655   c-0.298-0.184-0.727-0.462-1.182-0.765c-0.089,0.862-0.397,1.658-0.866,2.335c-0.057,0.362-0.098,0.732-0.098,1.115   c0,0.748,0.117,1.46,0.321,2.119C92.363,34.528,92.456,34.695,92.541,34.868z"/><path fill="none" d="M88.794,23.548c0.022,0.079,0.038,0.16,0.038,0.246c0,0.511-0.412,0.924-0.922,0.928   c0.14,0.177,0.352,0.293,0.595,0.293c0.421,0,0.762-0.341,0.762-0.762C89.267,23.935,89.071,23.662,88.794,23.548z"/><path fill="none" d="M47.228,82.484c-0.179,0-0.325,0.146-0.325,0.325v3.716l-3.069,3.068c-0.127,0.127-0.127,0.332,0,0.459   c0.063,0.063,0.146,0.095,0.229,0.095c0.083,0,0.166-0.032,0.229-0.095l3.259-3.259v-3.985   C47.553,82.63,47.408,82.484,47.228,82.484z"/><path d="M47.228,79.646c-3.82,0-6.916,3.097-6.916,6.916s3.097,6.916,6.916,6.916c3.82,0,6.916-3.097,6.916-6.916   S51.048,79.646,47.228,79.646z M47.553,86.793l-3.259,3.259c-0.063,0.063-0.146,0.095-0.229,0.095   c-0.083,0-0.166-0.032-0.229-0.095c-0.127-0.127-0.127-0.332,0-0.459l3.069-3.068v-3.716c0-0.179,0.145-0.325,0.325-0.325   c0.179,0,0.325,0.146,0.325,0.325V86.793z"/><circle cx="13.874" cy="12.841" r="4.483"/><path d="M1.748,26.802c0,0,4.674,8.076,5.985,7.335c0.105-0.059,0.169-0.17,0.204-0.317c0.109,0.254,0.238,0.496,0.377,0.732   c0.017,1.3-0.018,1.866-0.018,1.866l0.005,0.001c-0.438,2.636-0.83,9.209,0.336,25.458c0,0,0.094,0.058,0.256,0.136v0.567   c0,1.156,0.794,2.094,1.774,2.094h0.01c0.98,0,1.774-0.937,1.774-2.094v-0.502c0.116-0.06,0.231-0.125,0.347-0.201   c0.342-8.943-0.319-19.243,1.165-22.922c0.358,0.886,0.591,2.154,0.744,3.697c0.04,0.692,0.082,1.321,0.122,1.779   c0.01,0.115,0.022,0.242,0.035,0.376c0.247,4.78,0.041,11.215,0.265,17.069c0.1,0.066,0.201,0.121,0.301,0.175v0.571   c0,1.156,0.794,2.094,1.774,2.094h0.01c0.98,0,1.774-0.937,1.774-2.094v-0.588c0.189-0.089,0.301-0.158,0.301-0.158   c1.156-16.107,0.781-22.708,0.348-25.39l0,0c0,0-0.043-0.686-0.01-2.291c0.063-0.124,0.126-0.248,0.181-0.376   c0.036,0.146,0.1,0.257,0.204,0.317c1.311,0.742,5.985-7.335,5.985-7.335c0.23-0.406,0.257-0.868,0.124-1.279   c0.024-0.127,0.013-0.279-0.058-0.473c-1.573-4.338-9.196-6.456-9.589-6.245l0,0l-0.483-1.007l-1.938,0.173v0.009   c-0.061-0.003-0.12-0.009-0.182-0.009c-0.056,0-0.11,0.006-0.165,0.008v-0.008l-1.938-0.173l-0.476,0.993   c-0.007,0.005-0.014,0.011-0.021,0.016c-0.364-0.221-8.014,1.897-9.591,6.244c-0.07,0.194-0.081,0.346-0.058,0.473   C1.491,25.935,1.519,26.397,1.748,26.802z M21.746,24.937c0.333,0.162,0.815,0.363,1.339,0.544   c-0.453,0.837-1.937,3.636-2.756,5.84c0-0.014,0.002-0.027,0.002-0.041c0-0.346-0.035-0.684-0.088-1.016l0.008,0l-0.023-0.103   c-0.039-0.221-0.088-0.439-0.148-0.652l-1.414-6.204C19.644,23.851,21.022,24.584,21.746,24.937z M16.474,18.807L16.474,18.807   C16.474,18.807,16.474,18.807,16.474,18.807L16.474,18.807z M13.114,19.152c0-0.42,0.34-0.76,0.76-0.76c0.42,0,0.76,0.34,0.76,0.76   c0,0.126-0.038,0.239-0.092,0.344l0.174,9.656l-0.842,0.902l-0.842-0.902l0.174-9.656C13.152,19.391,13.114,19.277,13.114,19.152z    M6.002,24.937c0.724-0.353,2.103-1.086,3.081-1.632L7.7,29.386c-0.082,0.268-0.141,0.546-0.188,0.827l-0.024,0.104l0.008,0   c-0.047,0.314-0.079,0.634-0.079,0.961c0,0.014,0.002,0.027,0.002,0.041c-0.819-2.204-2.303-5.003-2.756-5.84   C5.187,25.299,5.669,25.099,6.002,24.937z"/><circle cx="36.535" cy="15.902" r="4.486"/><path d="M46.968,29.693c0.25-0.339,0.309-0.749,0.223-1.129c-0.007-0.041-0.005-0.075-0.017-0.12   c-1.163-4.584-8.215-7.038-10.639-7.038s-9.425,2.792-10.452,6.838c-0.003,0.01-0.002,0.018-0.004,0.028   c-0.113,0.383-0.056,0.812,0.2,1.158c0,0,3.358,4.727,4.933,5.45c-0.365,1.33-0.792,3.319-0.969,5.559h-0.008l-0.008,0.196   c-0.034,0.468-0.054,0.946-0.062,1.431l-0.405,9.369h1.595c-0.006,0.064-0.017,0.126-0.017,0.192c0,0,0.13,13.461,2.303,13.461   c2.173,0,2.303-13.461,2.303-13.461c0-0.066-0.014-0.127-0.02-0.192h1.531c-0.018,0.116-0.036,0.232-0.036,0.353   c0,0,0.13,13.461,2.303,13.461c2.172,0,2.303-13.461,2.303-13.461c0-0.121-0.013-0.238-0.031-0.353h1.558l-0.355-8.205   c0.015-0.934-0.032-1.85-0.118-2.729l-0.003-0.063h-0.003c-0.212-2.121-0.651-4.01-1.038-5.321   C43.828,33.858,46.968,29.693,46.968,29.693z M40.978,29.122c0.371-0.603,0.614-1.286,0.714-2.018   c0.479,0.317,0.928,0.61,1.243,0.804c0.335,0.207,0.837,0.473,1.378,0.717c-0.702,1.007-2.127,3.119-2.91,4.738   c-0.05-0.108-0.112-0.207-0.169-0.31c0.004-0.01,0.009-0.019,0.012-0.029c-0.214-0.688-0.405-1.715-0.405-2.497   C40.842,30.042,40.892,29.573,40.978,29.122z M28.799,28.415c0.514-0.232,0.99-0.485,1.308-0.681   c0.315-0.194,0.771-0.491,1.253-0.811c0.091,0.898,0.387,1.733,0.874,2.439c0.06,0.378,0.102,0.764,0.102,1.165   c0,0.781-0.122,1.526-0.336,2.214c0.001,0.002,0.002,0.003,0.002,0.005c-0.105,0.167-0.196,0.343-0.283,0.521   C31.032,31.699,29.519,29.448,28.799,28.415z"/><path d="M70.472,13.874c0-2.453-1.989-4.442-4.442-4.442c-2.453,0-4.442,1.989-4.442,4.442s1.989,4.442,4.442,4.442   C68.483,18.316,70.472,16.327,70.472,13.874z M65.085,17.271c-0.062,0.008-0.116,0.001-0.165-0.014   c-0.092,0.066-0.185,0.139-0.249,0.23c-0.107,0.152-0.259,0.158-0.378,0.091c-0.074-0.041-0.097-0.193-0.119-0.3   c-0.017-0.083,0.003-0.174,0.006-0.261c0,0-0.003,0-0.004,0c0.011-0.279-0.009-0.563,0.039-0.835   c0.11-0.621,0.745-1.091,1.309-1.008c0.09,0.013,0.371,0.122,0.505,0.18c0.134-0.058,0.415-0.166,0.505-0.18   c0.564-0.083,1.199,0.386,1.309,1.008c0.048,0.272,0.028,0.557,0.039,0.835c-0.001,0-0.003,0-0.004,0   c0.003,0.087,0.023,0.178,0.006,0.261c-0.022,0.107-0.045,0.259-0.119,0.3c-0.119,0.067-0.272,0.061-0.378-0.091   c-0.063-0.09-0.157-0.164-0.249-0.23c-0.049,0.015-0.103,0.022-0.165,0.014c-0.347-0.046-0.581-0.256-0.765-0.53   c-0.071-0.106-0.124-0.223-0.18-0.339c-0.056,0.115-0.11,0.233-0.18,0.339C65.666,17.015,65.432,17.225,65.085,17.271z"/><path d="M87.9,23.099c-0.731,0-1.421,0.169-2.04,0.463c-0.539-0.02-5.005,1.736-7.087,4.585c-0.113-0.07-0.259-0.16-0.441-0.271   c-0.225,0.39-0.734,1.254-1.376,2.262c0.366,0.252,0.595,0.404,0.595,0.404c0.168,0.109,0.351,0.172,0.537,0.198   c0.741,0.295,2.773-0.665,3.629-1.193c0.298-0.184,0.726-0.462,1.18-0.764c0.079,0.78,0.34,1.504,0.733,2.138   c0.079,0.427,0.127,0.868,0.127,1.325c0,0.752-0.184,1.74-0.39,2.402c0,0,0,0.001,0,0.001c-0.06,0.108-0.112,0.221-0.163,0.334   c-0.001-0.001-0.008-0.007-0.008-0.007c-0.288,0.622-1.183,3.228-1.548,6.461l-0.003,0c-0.011,0.136-0.024,0.282-0.038,0.436   c-0.016,0.17-0.036,0.336-0.049,0.508c-0.508,5.135-2.147,17.219-2.147,17.219c1.28,0.373,2.502,0.646,3.663,0.839   c0.317,2.766,0.854,5.211,1.762,5.211c0.869,0,1.397-2.238,1.719-4.852c0.86,0.036,1.671,0.03,2.43-0.008   c0.324,2.55,0.849,4.704,1.701,4.704c0.898,0,1.433-2.393,1.751-5.121c2.421-0.478,3.784-1.161,3.784-1.161   s-1.899-14.665-2.431-18.994c-0.205-1.508-0.504-2.825-0.768-3.786c1.515-0.696,4.745-5.243,4.745-5.243   c0.246-0.333,0.301-0.745,0.192-1.114c-0.002-0.01-0.001-0.017-0.004-0.027c-0.988-3.893-7.207-6.436-7.99-6.477   C89.34,23.273,88.641,23.099,87.9,23.099z M87.296,25.016c-0.421,0-0.762-0.341-0.762-0.762c0-0.32,0.198-0.593,0.478-0.706   c-0.022,0.079-0.038,0.161-0.038,0.248c0,0.509,0.41,0.922,0.918,0.928C87.752,24.899,87.539,25.016,87.296,25.016z M88.505,25.016   c-0.243,0-0.456-0.116-0.595-0.293c0.51-0.004,0.922-0.418,0.922-0.928c0-0.086-0.016-0.167-0.038-0.246   c0.278,0.114,0.473,0.386,0.473,0.705C89.267,24.674,88.926,25.016,88.505,25.016z M92.037,31.132   c0.469-0.677,0.777-1.473,0.866-2.335c0.455,0.302,0.884,0.581,1.182,0.765c0.306,0.189,0.764,0.432,1.259,0.655   c-0.69,0.991-2.138,3.144-2.802,4.652c-0.084-0.173-0.177-0.34-0.28-0.501c-0.204-0.659-0.321-1.371-0.321-2.119   C91.94,31.864,91.98,31.494,92.037,31.132z"/><path d="M83.171,17.124c0,0.75,0.182,1.457,0.498,2.084c-0.03,0.06-0.05,0.125-0.05,0.196c0,0.189,0.118,0.35,0.284,0.416   c-0.09,0.056-0.153,0.151-0.153,0.265c0,0.175,0.142,0.317,0.317,0.317c0.129,0,0.239-0.078,0.288-0.188   c0.85,0.951,2.083,1.553,3.459,1.553s2.609-0.602,3.459-1.553c0.05,0.11,0.159,0.188,0.288,0.188c0.175,0,0.317-0.142,0.317-0.317   c0-0.114-0.063-0.209-0.153-0.265c0.166-0.066,0.284-0.227,0.284-0.416c0-0.071-0.02-0.136-0.05-0.196   c0.316-0.627,0.498-1.334,0.498-2.084c0-2.565-2.079-4.644-4.644-4.644C85.25,12.48,83.171,14.559,83.171,17.124z"/><path d="M85.81,12.48c0,0.097,0.009,0.192,0.023,0.285c0.605-0.276,1.275-0.434,1.982-0.434s1.377,0.158,1.982,0.434   c0.013-0.093,0.023-0.188,0.023-0.285c0-1.107-0.898-2.005-2.005-2.005C86.708,10.475,85.81,11.373,85.81,12.48z"/><path d="M57.848,41.556c0.235,0.289,0.382,0.652,0.382,1.054h0.816c0-0.778-0.364-1.464-0.922-1.921   C58.042,41.008,57.952,41.305,57.848,41.556z"/><path d="M54.874,65.321V42.609h0.005c0-0.609,0.328-1.137,0.814-1.431c-0.082-0.244-0.156-0.511-0.224-0.801   c-0.8,0.392-1.362,1.194-1.397,2.138h-0.009v0.093c0,0,0,0,0,0h0v22.712H54.874z"/><path d="M73.976,27.934c0.222-0.434,0.454-0.881,0.708-1.353c-0.366-0.137-0.717-0.285-0.997-0.422   c-0.465-0.227-1.219-0.62-1.961-1.02c-0.006,0.007-0.014,0.012-0.019,0.02C71.391,25.644,72.586,26.811,73.976,27.934z"/><path d="M72.115,34.978c1.299,0.735,5.931-7.269,5.931-7.269c0.228-0.402,0.255-0.86,0.123-1.267   c0.023-0.125,0.013-0.276-0.057-0.469c-0.982-2.708-4.341-4.541-6.792-5.477c-1.53-0.972-3.343-1.539-5.29-1.539   c-3.176,0-5.998,1.502-7.807,3.83c-0.153,0.154-0.423,0.543-0.743,1.102c-0.042,0.071-0.086,0.141-0.126,0.213h0.006   c-1.053,1.906-2.499,5.419-2.032,8.301c-0.055,0.162-0.092,0.333-0.091,0.514c0,0,0.113,9.247,1.605,9.243   c1.492-0.004,1.558-9.251,1.558-9.251c-0.001-0.322-0.099-0.621-0.265-0.87c0.257-0.496,0.47-0.978,0.6-1.328   c0.415-1.117,2.278-6.039,2.398-6.609h0.181l-1.433,6.288c-0.02,0.071-0.032,0.146-0.05,0.218c-0.033,0.131-0.065,0.261-0.09,0.395   c-0.002,0.011-0.006,0.022-0.008,0.033l-0.023,0.102l0.008,0c-0.005,0.031-0.007,0.064-0.012,0.095   c-0.02,0.131-0.039,0.262-0.05,0.396c-0.004,0.049-0.004,0.098-0.007,0.147c-0.008,0.135-0.02,0.268-0.02,0.405   c0,1.358,0.426,2.615,1.147,3.65c-0.031,0.141-0.063,0.29-0.094,0.444c-0.47,1.492-1.324,6.96,0.071,26.402   c0,0,0.074,0.046,0.205,0.112v0.454c0,1.146,0.787,2.075,1.758,2.075h0.01c0.971,0,1.758-0.929,1.758-2.075v-0.341   c0.131-0.065,0.261-0.139,0.392-0.225c0.339-8.854-0.311-19.038,1.155-22.692c0.305,0.759,0.519,1.798,0.668,3.052   c0.045,0.832,0.095,1.6,0.141,2.135c0.025,0.285,0.059,0.638,0.104,1.027c0.211,4.688,0.026,10.853,0.241,16.477   c0.083,0.055,0.167,0.099,0.25,0.145v0.378c0,1.146,0.787,2.075,1.758,2.075h0.01c0.971,0,1.758-0.929,1.758-2.075v-0.344   c0.219-0.1,0.347-0.179,0.347-0.179c1.561-21.758,0.306-26.017-0.076-26.784c0.273-0.382,0.509-0.792,0.694-1.23   C71.961,34.805,72.014,34.921,72.115,34.978z M65.628,20.192c0,0.082-0.037,0.162-0.091,0.18l-0.564,0.195   c-0.227,0.078-0.481-0.028-0.481-0.268v-0.326c0-0.24,0.255-0.346,0.481-0.268l0.564,0.195c0.053,0.018,0.091,0.098,0.091,0.18   V20.192z M66.027,20.486c-0.193,0-0.349-0.156-0.349-0.349c0-0.193,0.156-0.349,0.349-0.349c0.193,0,0.349,0.156,0.349,0.349   C66.376,20.329,66.22,20.486,66.027,20.486z M67.567,20.299c0,0.24-0.255,0.346-0.481,0.268l-0.564-0.195   c-0.053-0.018-0.091-0.098-0.091-0.18V20.08c0-0.082,0.037-0.162,0.091-0.18l0.564-0.195c0.227-0.078,0.481,0.028,0.481,0.268   V20.299z M70.777,24.243c0.97,0.542,2.336,1.268,3.053,1.618c0.33,0.161,0.808,0.359,1.327,0.539   c-0.449,0.83-1.92,3.607-2.731,5.791c0-0.015,0.002-0.029,0.002-0.044c0-0.199-0.015-0.395-0.035-0.589   c-0.003-0.03-0.007-0.059-0.011-0.089c-0.011-0.091-0.02-0.184-0.033-0.274l0.008,0l-0.023-0.103   c-0.007-0.04-0.02-0.078-0.027-0.118c-0.018-0.093-0.041-0.183-0.063-0.275c-0.032-0.143-0.055-0.289-0.097-0.428L70.777,24.243z"/><polygon points="89.378,72.75 1.544,72.75 1.544,74.75 89.378,74.75 89.378,78.736 98.012,73.75 89.378,68.764  "/></g></svg>