<svg xmlns="http://www.w3.org/2000/svg" xmlns:xlink="http://www.w3.org/1999/xlink" version="1.1" x="0px" y="0px" viewBox="0 174.4 841.9 1052.25" enable-background="new 0 174.4 841.9 841.8" xml:space="preserve"><g><path d="M641.4,379.5V238.1h-83.1v64.1L420.9,174.4L17.5,549.9h117l0,467.5h572.9V549.9h117L641.4,379.5z M573.9,709.7   c11.6,0,21,9.4,21,21c0,11.6-9.4,21-21,21c-11.6,0-21-9.4-21-21C552.9,719.1,562.3,709.7,573.9,709.7z M441.5,551.4   c18,0,32.6,14.6,32.6,32.6s-14.6,32.6-32.6,32.6c-17.9,0-32.6-14.6-32.6-32.6S423.5,551.4,441.5,551.4z M302.7,586.1   c16.5,0,29.9,13.4,29.9,29.8c0,16.5-13.4,29.9-29.9,29.9s-29.9-13.4-29.9-29.9C272.8,599.5,286.2,586.1,302.7,586.1z M496,773.9   V670.6h-11.4l-0.1,275.8c0,9.7-7.5,19.6-17.2,19.6c-9.7,0-17-9.9-17-19.6l0-159.7h-13.5l0,159.7c0,9.7-7.3,19.6-17,19.6   c-9.7,0-17.2-9.9-17.2-19.6l0-275.8h-11.6v103.3c0,9.7-6.4,13.9-12.3,13.7h-0.1l-0.1,0c-0.4,0-0.8,0.1-1.1,0.1   c-5.1,0-9.2-3.5-11.1-9.5L341.9,696h-10.2l41.9,144.3h-38.1v114c0,8.8-6.7,12.9-12.9,12.9c-3.4,0-6.6-1.1-9-3.2   c-2.6-2.3-4-5.7-4-9.6V839.6h-14.8l0,114.6c0,8.9-6.7,13-13,13c-6.3,0-13-4.1-13-13V840.3h-38.3L272.3,696h-9.6l-24.5,82.5   c-1.8,5.7-6,9.1-11.2,9.1c-3.5,0-6.9-1.7-9-4.5c-2.4-3.2-2.9-7.5-1.5-12.3l26.9-88.5c6.9-24.3,24.9-26.9,32.3-26.9l52.9,0   c20.6,0,29.3,16.9,32.6,26.9l6.1,20.1v-33.2c0-25.1,15.5-42.7,37.7-42.7l76.4,0c26.3,0,38.3,22.4,38.3,43.3v104   c0,4.4-1.3,8-3.8,10.6c-2.1,2.1-5,3.3-8,3.3C502.2,787.7,496,783.4,496,773.9z M629.8,843.5c-1.3,1.7-3.4,2.8-5.5,2.8   c-3.2,0-5.8-2.2-6.9-6l-16.5-55.4h-7.9l28.1,96.6h-25.3v76.9c0,5.5-4.2,8.1-8.1,8.1c-2.2,0-4.2-0.7-5.6-2c-1.6-1.4-2.5-3.5-2.5-6.1   V881h-10.9l0,77.3c0,5.6-4.2,8.2-8.2,8.2c-3.9,0-8.2-2.6-8.2-8.2v-76.8h-25.4l27.8-96.6H547l-16.5,55.6c-1.2,3.6-3.8,5.7-7,5.7   c-2.2,0-4.3-1-5.6-2.8c-1.5-2-1.8-4.8-0.9-7.8l18-59.3c1.5-5.3,6.6-17.6,21.1-17.6h35.4c13.5,0,19.2,11.1,21.3,17.6l18,59.1   C631.7,838.6,631.3,841.4,629.8,843.5z"/></g></svg>