<svg xmlns="http://www.w3.org/2000/svg" xmlns:xlink="http://www.w3.org/1999/xlink" version="1.1" x="0px" y="0px" viewBox="0 0 100 125" enable-background="new 0 0 100 100" xml:space="preserve"><rect fill="none" width="100" height="100"/><path d="M92.626,38.265h-2.745L23.425,11.745c-0.294-0.114-0.619-0.11-0.909,0.013c-0.29,0.123-0.519,0.358-0.635,0.652  L5.084,54.503c-0.242,0.609,0.055,1.3,0.663,1.546l5.903,2.355L9.275,70.772c-0.125,0.644,0.298,1.267,0.942,1.394l5.056,0.97  v12.827c0,1.313,1.063,2.376,2.374,2.376h74.979c1.311,0,2.374-1.063,2.374-2.376V40.638C95,39.324,93.937,38.265,92.626,38.265z   M90.252,83.586h-7.32c0.886-3.601,3.713-6.426,7.32-7.311V83.586z M80.485,83.586h-4.527l-2.307-0.44l1.114,0.44h-44.98  c-0.961-4.918-4.841-8.798-9.764-9.76V52.774c4.922-0.958,8.802-4.843,9.764-9.761h50.7c0.962,4.918,4.842,8.803,9.767,9.761v21.052  C85.327,74.788,81.447,78.668,80.485,83.586z M90.252,43.014v7.311c-3.607-0.881-6.435-3.71-7.32-7.311H90.252z M20.021,43.014  h7.313c-0.883,3.601-3.708,6.43-7.313,7.311V43.014z M17.94,38.265l1.993-10.389l54.047,10.389H17.94z M20.021,83.586v-7.311  c3.605,0.885,6.43,3.71,7.313,7.311H20.021z M23.65,14.39l56.946,22.728L19.28,25.334L23.65,14.39z M7.731,54.282L16.824,31.5  l-4.715,24.527L7.731,54.282z M11.832,70.061l3.442-17.923v18.58L11.832,70.061z M55.132,45.975  c-9.093,0-16.489,7.774-16.489,17.321c0,9.557,7.396,17.325,16.489,17.325c9.097,0,16.497-7.769,16.497-17.325  C71.629,53.749,64.229,45.975,55.132,45.975z M55.132,78.245c-7.782,0-14.115-6.706-14.115-14.949  c0-8.238,6.333-14.945,14.115-14.945c7.79,0,14.125,6.707,14.125,14.945C69.257,71.539,62.922,78.245,55.132,78.245z M34.928,63.296  c0,0.661-0.529,1.19-1.188,1.19h-5.509c-0.655,0-1.188-0.529-1.188-1.19c0-0.652,0.534-1.186,1.188-1.186h5.509  C34.398,62.11,34.928,62.644,34.928,63.296z M83.23,63.296c0,0.661-0.533,1.19-1.188,1.19h-5.511c-0.656,0-1.186-0.529-1.186-1.19  c0-0.652,0.529-1.186,1.186-1.186h5.511C82.697,62.11,83.23,62.644,83.23,63.296z M56.678,62.148V57.4  c0.723,0.216,1.345,0.542,1.809,0.965c0.483,0.441,1.235,0.411,1.68-0.076c0.438-0.486,0.409-1.236-0.078-1.682  c-0.881-0.8-2.065-1.338-3.41-1.639v-1.834c0-0.657-0.533-1.188-1.188-1.188c-0.657,0-1.187,0.53-1.187,1.188v1.58  c-2.949,0.046-5,2.033-5,4.866c0,1.31,0.417,2.334,1.243,3.05c0.813,0.703,1.952,1.229,3.046,1.406l0.71,0.119v6.607  c-1.703-0.122-2.879-0.631-4.044-1.796c-0.463-0.461-1.213-0.461-1.677,0c-0.464,0.466-0.464,1.221,0,1.682  c1.599,1.593,3.37,2.339,5.722,2.479v1.932c0,0.652,0.529,1.186,1.187,1.186c0.654,0,1.188-0.533,1.188-1.186v-1.982  c3.3-0.504,5.358-2.614,5.358-5.668c0-1.499-0.578-2.664-1.861-3.753C59.243,62.848,58.218,62.415,56.678,62.148z M53.978,61.699  c-0.803-0.136-1.513-0.551-1.875-0.868c-0.106-0.089-0.424-0.364-0.424-1.25c0-1.503,1.007-2.443,2.625-2.49v4.659L53.978,61.699z   M56.678,70.654v-6.092c0.975,0.208,1.48,0.487,1.951,0.895c0.771,0.656,1.031,1.151,1.031,1.952  C59.66,69.578,58.089,70.37,56.678,70.654z"/></svg>