<svg xmlns="http://www.w3.org/2000/svg" xmlns:xlink="http://www.w3.org/1999/xlink" version="1.1" x="0px" y="0px" viewBox="0 0 100 125" style="enable-background:new 0 0 100 100;" xml:space="preserve"><style type="text/css">
	.st0{display:none;}
	.st1{display:inline;stroke:#000000;stroke-miterlimit:10;}
	.st2{fill:none;}
	.st3{fill:#FFFFFF;}
	.st4{clip-path:url(#SVGID_2_);}
</style><g class="st0"><rect x="-1857.6" y="-219.6" class="st1" width="4427.1" height="779.8"/></g><g><g><g><g><polygon points="22.7,44.3 22.7,44.3 22.7,44.3     "/><polygon points="36.6,44.3 36.6,44.3 36.6,44.3     "/></g></g><g><path class="st2" d="M19.9,30.5c0.3,0.6,0.7,1.1,1.1,1.6C20.6,31.6,20.2,31,19.9,30.5C19.9,30.5,19.9,30.5,19.9,30.5z"/><g><polygon class="st2" points="54.7,69 51.4,81.6 81.4,81.6 84.8,69 56,69     "/><polygon class="st2" points="85.6,80.3 89.3,80.3 87.4,73.8     "/><g><polygon class="st2" points="54.7,69 51.4,81.6 81.4,81.6 84.8,69 56,69      "/><polygon class="st2" points="85.6,80.3 89.3,80.3 87.4,73.8      "/><g><polygon class="st2" points="87.4,73.8 85.6,80.3 87.4,73.8       "/><polygon class="st2" points="54.7,69 51.4,81.6 81.4,81.6 84.8,69 56,69       "/><path d="M95.6,75.3h-3.9l-2.5-8.7c-0.2-0.8-1-1.4-1.8-1.4h-0.2H53.5h-0.2c-0.8,0-1.6,0.6-1.8,1.4l-2.3,8.7h-6.6        c4.6-3.8,7.6-9.5,7.6-15.9V44.1c0-6.2-2.7-11.7-7.1-15.5c-0.3,1.3-0.9,2.6-1.6,3.7c3,3,4.8,7.2,4.8,11.7v15.3        c0,4.1-1.5,7.8-3.9,10.7V48.4c0-3.2-2.6-5.8-5.8-5.8h0c-3.2,0-5.8,2.6-5.8,5.8v25.9c0,0,0,0,0,0v1h-2.2V48.4        c0-3.2-2.6-5.8-5.8-5.8h0c-3.2,0-5.8,2.6-5.8,5.8v21.7c-2.4-2.9-3.9-6.7-3.9-10.7V44.1c0-4.5,1.8-8.6,4.7-11.6        c-0.7-1.1-1.3-2.4-1.6-3.7c-4.2,3.8-6.8,9.2-6.8,15.3v15.3c0,6.4,3,12.2,7.6,15.9H4.4c-1,0-1.9,0.8-1.9,1.9        c0,1,0.8,1.9,1.9,1.9h12.5v0.4c0,3.2,2.6,5.8,5.8,5.8c2.4,0,4.5-1.5,5.4-3.5c0.5,0,1,0.1,1.4,0.1c0.6,0,1.1,0,1.7-0.1        c0.9,2.1,3,3.6,5.4,3.6c3.2,0,5.8-2.6,5.8-5.8V79h5.7L47.1,83c-0.2,0.6,0,1.2,0.3,1.6c0.4,0.5,0.9,0.7,1.5,0.7h34        c0.8,0,1.5-0.5,1.8-1.3h7.2c0.6,0,1.1-0.3,1.5-0.7c0.4-0.5,0.5-1.1,0.3-1.6L92.8,79h2.8c1,0,1.9-0.8,1.9-1.9        C97.5,76.1,96.7,75.3,95.6,75.3z M81.4,81.6H51.4L54.7,69H56h28.8L81.4,81.6z M85.6,80.3l1.8-6.5l1.9,6.5H85.6z"/><polygon points="87.4,73.8 89.3,80.3 87.4,73.8       "/></g></g></g></g></g><path d="M18.5,26.2c0,0.2,0.1,0.4,0.1,0.6c0.2,1.3,0.6,2.6,1.3,3.7c0,0,0,0,0,0c0.3,0.6,0.7,1.1,1.1,1.6c0.9,1.1,2,2,3.2,2.7   c0.6,0.3,1.3,0.6,2,0.8c1,0.3,2.1,0.5,3.3,0.5c0.6,0,1.1,0,1.7-0.1c0.3,0,0.5-0.1,0.8-0.2c0.5-0.1,1-0.3,1.5-0.5s1-0.4,1.4-0.7   c0.2-0.1,0.5-0.3,0.7-0.4c0.6-0.4,1.1-0.8,1.6-1.3c0.5-0.5,0.9-1,1.3-1.6c1.2-1.8,1.9-3.9,1.9-6.1c0-0.9-0.1-1.7-0.3-2.5   c-0.1-0.3-0.2-0.7-0.3-1c-0.1-0.4-0.3-0.7-0.4-1.1c-0.1-0.2-0.2-0.4-0.3-0.5c-0.2-0.4-0.4-0.7-0.6-1.1c-0.1-0.2-0.3-0.4-0.5-0.6   c-0.3-0.4-0.7-0.8-1.1-1.2c-0.2-0.2-0.4-0.4-0.6-0.5c-0.2-0.2-0.5-0.4-0.7-0.6c-0.3-0.2-0.5-0.3-0.8-0.5c-0.8-0.5-1.7-0.8-2.6-1.1   c-0.9-0.2-1.9-0.4-2.9-0.4c-0.7,0-1.3,0.1-1.9,0.2c-1.3,0.2-2.5,0.7-3.5,1.3c-0.5,0.3-1,0.7-1.5,1.1c-0.3,0.3-0.6,0.5-0.9,0.8   c-0.3,0.3-0.5,0.6-0.8,0.9c-0.2,0.2-0.3,0.4-0.5,0.6c-0.3,0.4-0.6,0.9-0.8,1.4c-0.1,0.2-0.2,0.5-0.3,0.7c-0.1,0.3-0.2,0.6-0.3,1   c-0.3,1-0.4,2-0.4,3.1C18.5,25.4,18.5,25.8,18.5,26.2z"/></g></svg>