<svg xmlns="http://www.w3.org/2000/svg" xmlns:xlink="http://www.w3.org/1999/xlink" version="1.1" x="0px" y="0px" viewBox="0 0 100 125" style="enable-background:new 0 0 100 100;" xml:space="preserve"><g><path d="M78.7,5H21.3c-3.6,0-6.5,2.9-6.5,6.5v77c0,3.6,2.9,6.5,6.5,6.5h57.4c3.6,0,6.5-2.9,6.5-6.5v-77C85.2,7.9,82.3,5,78.7,5z    M82.6,88.5c0,2.2-1.8,3.9-3.9,3.9H21.3c-2.2,0-3.9-1.8-3.9-3.9v-77c0-2.2,1.8-3.9,3.9-3.9h57.4c2.2,0,3.9,1.8,3.9,3.9V88.5z"/><path d="M34.7,36.7H25c-1.9,0-3.4,1.5-3.4,3.4v7.7c0,1.9,1.5,3.4,3.4,3.4h9.7c1.9,0,3.4-1.5,3.4-3.4v-7.7   C38.1,38.2,36.5,36.7,34.7,36.7z M35.5,47.8c0,0.4-0.4,0.8-0.8,0.8H25c-0.4,0-0.8-0.4-0.8-0.8v-7.7c0-0.4,0.4-0.8,0.8-0.8h9.7   c0.4,0,0.8,0.4,0.8,0.8V47.8z"/><path d="M34.7,55.4H25c-1.9,0-3.4,1.5-3.4,3.4v7.7c0,1.9,1.5,3.4,3.4,3.4h9.7c1.9,0,3.4-1.5,3.4-3.4v-7.7   C38.1,56.9,36.5,55.4,34.7,55.4z M35.5,66.5c0,0.4-0.4,0.8-0.8,0.8H25c-0.4,0-0.8-0.4-0.8-0.8v-7.7c0-0.4,0.4-0.8,0.8-0.8h9.7   c0.4,0,0.8,0.4,0.8,0.8V66.5z"/><path d="M53.5,36.7h-9.7c-1.9,0-3.4,1.5-3.4,3.4v7.7c0,1.9,1.5,3.4,3.4,3.4h9.7c1.9,0,3.4-1.5,3.4-3.4v-7.7   C56.9,38.2,55.4,36.7,53.5,36.7z M54.3,47.8c0,0.4-0.4,0.8-0.8,0.8h-9.7c-0.4,0-0.8-0.4-0.8-0.8v-7.7c0-0.4,0.4-0.8,0.8-0.8h9.7   c0.4,0,0.8,0.4,0.8,0.8V47.8z"/><path d="M53.5,55.4h-9.7c-1.9,0-3.4,1.5-3.4,3.4v7.7c0,1.9,1.5,3.4,3.4,3.4h9.7c1.9,0,3.4-1.5,3.4-3.4v-7.7   C56.9,56.9,55.4,55.4,53.5,55.4z M54.3,66.5c0,0.4-0.4,0.8-0.8,0.8h-9.7c-0.4,0-0.8-0.4-0.8-0.8v-7.7c0-0.4,0.4-0.8,0.8-0.8h9.7   c0.4,0,0.8,0.4,0.8,0.8V66.5z"/><path d="M34.7,74.1H25c-1.9,0-3.4,1.5-3.4,3.4v7.7c0,1.9,1.5,3.4,3.4,3.4h9.7c1.9,0,3.4-1.5,3.4-3.4v-7.7   C38.1,75.6,36.5,74.1,34.7,74.1z M35.5,85.2c0,0.4-0.4,0.8-0.8,0.8H25c-0.4,0-0.8-0.4-0.8-0.8v-7.7c0-0.4,0.4-0.8,0.8-0.8h9.7   c0.4,0,0.8,0.4,0.8,0.8V85.2z"/><path d="M53.5,74.1h-9.7c-1.9,0-3.4,1.5-3.4,3.4v7.7c0,1.9,1.5,3.4,3.4,3.4h9.7c1.9,0,3.4-1.5,3.4-3.4v-7.7   C56.9,75.6,55.4,74.1,53.5,74.1z M54.3,85.2c0,0.4-0.4,0.8-0.8,0.8h-9.7c-0.4,0-0.8-0.4-0.8-0.8v-7.7c0-0.4,0.4-0.8,0.8-0.8h9.7   c0.4,0,0.8,0.4,0.8,0.8V85.2z"/><path d="M75,74.1h-9.7c-1.9,0-3.4,1.5-3.4,3.4v7.7c0,1.9,1.5,3.4,3.4,3.4H75c1.9,0,3.4-1.5,3.4-3.4v-7.7   C78.4,75.6,76.9,74.1,75,74.1z M75.8,85.2c0,0.4-0.4,0.8-0.8,0.8h-9.7c-0.4,0-0.8-0.4-0.8-0.8v-7.7c0-0.4,0.4-0.8,0.8-0.8H75   c0.4,0,0.8,0.4,0.8,0.8V85.2z"/><rect x="20.2" y="29.8" width="59.5" height="2.6"/><path d="M75,36.7h-9.7c-1.9,0-3.4,1.5-3.4,3.4v26.4c0,1.9,1.5,3.4,3.4,3.4H75c1.9,0,3.4-1.5,3.4-3.4V40.1   C78.4,38.2,76.9,36.7,75,36.7z M75.8,66.5c0,0.4-0.4,0.8-0.8,0.8h-9.7c-0.4,0-0.8-0.4-0.8-0.8V40.1c0-0.4,0.4-0.8,0.8-0.8H75   c0.4,0,0.8,0.4,0.8,0.8V66.5z"/><polygon points="71.5,49.5 68.9,49.5 68.9,52 66.4,52 66.4,54.6 68.9,54.6 68.9,57.1 71.5,57.1 71.5,54.6 74,54.6 74,52 71.5,52     "/><rect x="66.4" y="78.4" width="7.6" height="2.6"/><rect x="66.4" y="81.6" width="7.6" height="2.6"/></g></svg>