<svg xmlns="http://www.w3.org/2000/svg" xmlns:xlink="http://www.w3.org/1999/xlink" version="1.1" x="0px" y="0px" viewBox="0 0 97 121.25" enable-background="new 0 0 97 97" xml:space="preserve"><g><polygon fill="#000000" points="76.2,35.3 78.7,32.2 39.9,0.5 1.2,32.2 3.7,35.3 39.9,5.6  "/><rect x="41.9" y="42.6" fill="#000000" width="14.9" height="14.9"/><rect x="23.1" y="42.6" fill="#000000" width="14.9" height="14.9"/><rect x="23.1" y="61.5" fill="#000000" width="14.9" height="14.9"/><path fill="#000000" d="M75.9,56.7c-1.1,0-2.1,0.1-3.1,0.3V37.5L39.9,10.6L7.1,37.5v50.3h52.5c3.6,5.2,9.6,8.7,16.4,8.7   c11,0,19.9-8.9,19.9-19.9S86.9,56.7,75.9,56.7z M11,83.9V39.4l28.9-23.7l28.9,23.7V58c-5.8,2.2-10.3,7-12,13v-9.5H41.9v14.9H56   c0,0.1,0,0.1,0,0.2c0,2.6,0.5,5,1.4,7.3H11z M75.9,92.5c-8.8,0-15.9-7.1-15.9-15.9s7.1-15.9,15.9-15.9c8.8,0,15.9,7.1,15.9,15.9   S84.7,92.5,75.9,92.5z"/><path fill="#000000" d="M76.5,77.9v2.5c0.8-0.1,1.2-0.5,1.2-1.2C77.7,78.7,77.3,78.3,76.5,77.9z"/><path fill="#000000" d="M74.2,73.7c0,0.6,0.4,1,1.2,1.4v-2.6C74.5,72.6,74.2,73,74.2,73.7z"/><path fill="#000000" d="M75.9,64.3c-6.8,0-12.3,5.5-12.3,12.3s5.5,12.3,12.3,12.3c6.8,0,12.3-5.5,12.3-12.3S82.7,64.3,75.9,64.3z    M79.1,81.4c-0.6,0.6-1.4,0.9-2.5,1v1.8h-1.2v-1.8c-1.1,0-2.2-0.3-3.1-0.8v-2.3c0.3,0.3,0.8,0.5,1.4,0.7c0.6,0.2,1.2,0.3,1.7,0.4   v-3c-1.3-0.5-2.2-1-2.7-1.6c-0.5-0.6-0.7-1.3-0.7-2.1c0-0.9,0.3-1.6,0.9-2.2c0.6-0.6,1.4-1,2.4-1.1V69h1.2v1.5   c1.2,0.1,2,0.2,2.6,0.6v2.2c-0.8-0.5-1.7-0.8-2.6-0.9v3.2c1.2,0.4,2.1,0.9,2.6,1.5c0.5,0.6,0.8,1.2,0.8,2   C79.9,80.1,79.6,80.8,79.1,81.4z"/><rect x="23.8" y="32.8" fill="#000000" width="4.6" height="4"/><rect x="37.6" y="32.8" fill="#000000" width="4.6" height="4"/><rect x="51.5" y="32.8" fill="#000000" width="4.6" height="4"/></g></svg>