<svg xmlns="http://www.w3.org/2000/svg" xmlns:xlink="http://www.w3.org/1999/xlink" version="1.1" x="0px" y="0px" viewBox="0 0 29 36.25" style="enable-background:new 0 0 29 29;" xml:space="preserve"><g><polygon points="14,12 14,14 14,15 15,15 17,15 17,14 15,14 15,12  "/><path d="M28,20h1l-1-5h-7v5v8h-1V11.374l1.9,1.425l1.2-1.6L15,5.125V2.799L19,2V1l-5-1v5.125l-8.1,6.074l1.2,1.6L9,11.374V28H8v-8   v-5H2l-2,5h1v8H0v1h29v-1h-1V20z M2,26v-4h2v4H2z M5,26v-4h2v4H5z M18,14.5c0,1.932-1.567,3.5-3.5,3.5c-1.933,0-3.5-1.568-3.5-3.5   c0-1.934,1.567-3.5,3.5-3.5C16.433,11,18,12.566,18,14.5z M12,28v-6c0-1.381,1.119-2.5,2.5-2.5c1.381,0,2.5,1.119,2.5,2.5v6H12z    M27,22v4h-2v-4H27z M24,22v4h-2v-4H24z" fill="#5B5F97;"/></g></svg>